<svg width="350" height="84" viewBox="0 0 350 84" fill="none" xmlns="http://www.w3.org/2000/svg">
<g clip-path="url(#clip0_1_2)">
<mask id="mask0_1_2" style="mask-type:luminance" maskUnits="userSpaceOnUse" x="0" y="0" width="350" height="84">
<path d="M350 0H0V84H350V0Z" fill="white"/>
</mask>
<g mask="url(#mask0_1_2)">
<path d="M21.437 23.659C21.437 21.5037 21.225 20.0373 20.801 19.26C20.377 18.4827 19.688 18.094 18.734 18.094C17.992 18.094 17.3913 18.2883 16.932 18.677C16.508 19.0657 16.1723 19.7547 15.925 20.744C15.713 21.7333 15.5717 23.076 15.501 24.772C15.4303 26.4327 15.395 28.535 15.395 31.079C15.395 33.623 15.4303 35.743 15.501 37.439C15.5717 39.0997 15.713 40.4247 15.925 41.414C16.1723 42.4033 16.508 43.0923 16.932 43.481C17.3913 43.8697 17.992 44.064 18.734 44.064C19.3347 44.064 19.8293 43.9227 20.218 43.64C20.6067 43.322 20.907 42.8097 21.119 42.103C21.331 41.3963 21.4723 40.46 21.543 39.294C21.649 38.0927 21.702 36.591 21.702 34.789H31.242V37.598C31.242 40.248 30.8887 42.421 30.182 44.117C29.4753 45.813 28.539 47.1557 27.373 48.145C26.207 49.099 24.8643 49.735 23.345 50.053C21.861 50.4063 20.324 50.583 18.734 50.583C15.978 50.583 13.7167 50.2473 11.95 49.576C10.1833 48.9047 8.80532 47.7917 7.81599 46.237C6.82666 44.647 6.13766 42.6153 5.74899 40.142C5.39566 37.6333 5.21899 34.6123 5.21899 31.079C5.21899 27.475 5.43099 24.4187 5.85499 21.91C6.31432 19.4013 7.07399 17.3697 8.13399 15.815C9.19399 14.2603 10.5897 13.1473 12.321 12.476C14.0523 11.7693 16.19 11.416 18.734 11.416C20.96 11.416 22.8503 11.6987 24.405 12.264C25.9597 12.8293 27.214 13.642 28.168 14.702C29.1573 15.7267 29.864 16.981 30.288 18.465C30.7473 19.9137 30.977 21.5567 30.977 23.394V25.779H21.437V23.659ZM42.0068 35.69C42.0068 37.492 42.0421 38.976 42.1128 40.142C42.1835 41.2727 42.3248 42.1737 42.5368 42.845C42.7488 43.5163 43.0138 43.9757 43.3318 44.223C43.6851 44.4703 44.1268 44.594 44.6568 44.594C45.1868 44.594 45.6285 44.4703 45.9818 44.223C46.3351 43.9757 46.6001 43.5163 46.7768 42.845C46.9888 42.1737 47.1301 41.2727 47.2008 40.142C47.2715 38.976 47.3068 37.492 47.3068 35.69C47.3068 33.888 47.2715 32.404 47.2008 31.238C47.1301 30.072 46.9888 29.1533 46.7768 28.482C46.6001 27.8107 46.3351 27.3513 45.9818 27.104C45.6285 26.8567 45.1868 26.733 44.6568 26.733C44.1268 26.733 43.6851 26.8567 43.3318 27.104C43.0138 27.3513 42.7488 27.8107 42.5368 28.482C42.3248 29.1533 42.1835 30.072 42.1128 31.238C42.0421 32.404 42.0068 33.888 42.0068 35.69ZM56.8468 35.69C56.8468 37.5627 56.7055 39.4 56.4228 41.202C56.1755 43.004 55.6278 44.6117 54.7798 46.025C53.9318 47.403 52.6951 48.516 51.0698 49.364C49.4798 50.1767 47.3421 50.583 44.6568 50.583C41.8655 50.583 39.6571 50.212 38.0318 49.47C36.4065 48.6927 35.1875 47.6327 34.3748 46.29C33.5621 44.912 33.0321 43.322 32.7848 41.52C32.5728 39.6827 32.4668 37.7217 32.4668 35.637C32.4668 33.7643 32.5905 31.927 32.8378 30.125C33.1205 28.323 33.6858 26.7153 34.5338 25.302C35.3818 23.8887 36.6008 22.758 38.1908 21.91C39.8161 21.0267 41.9715 20.585 44.6568 20.585C47.4481 20.585 49.6565 20.9913 51.2818 21.804C52.9071 22.5813 54.1261 23.659 54.9388 25.037C55.7515 26.415 56.2638 28.0227 56.4758 29.86C56.7231 31.662 56.8468 33.6053 56.8468 35.69ZM72.6938 31.079C72.6938 29.8777 72.5171 29.012 72.1638 28.482C71.8105 27.952 71.2098 27.687 70.3618 27.687C69.5138 27.687 68.9131 27.952 68.5598 28.482C68.2065 29.012 68.0298 29.8777 68.0298 31.079V50H58.4898V21.327H67.7118V24.825H67.8178C69.0545 21.9983 71.3688 20.585 74.7608 20.585C76.7395 20.585 78.2411 20.956 79.2658 21.698C80.3258 22.4047 81.1561 23.5 81.7568 24.984C82.4988 23.3587 83.5058 22.228 84.7778 21.592C86.0851 20.9207 87.4808 20.585 88.9648 20.585C90.0248 20.585 90.9965 20.7087 91.8798 20.956C92.7985 21.168 93.5935 21.5743 94.2648 22.175C94.9361 22.7757 95.4661 23.5707 95.8548 24.56C96.2435 25.5493 96.4378 26.8213 96.4378 28.376V50H86.8978V31.079C86.8978 29.8777 86.7211 29.012 86.3678 28.482C86.0145 27.952 85.4138 27.687 84.5658 27.687C83.7178 27.687 83.1171 27.952 82.7638 28.482C82.4105 29.012 82.2338 29.8777 82.2338 31.079V50H72.6938V31.079ZM112.885 31.079C112.885 29.8777 112.708 29.012 112.355 28.482C112.001 27.952 111.401 27.687 110.553 27.687C109.705 27.687 109.104 27.952 108.751 28.482C108.397 29.012 108.221 29.8777 108.221 31.079V50H98.6808V21.327H107.903V24.825H108.009C109.245 21.9983 111.56 20.585 114.952 20.585C116.93 20.585 118.432 20.956 119.457 21.698C120.517 22.4047 121.347 23.5 121.948 24.984C122.69 23.3587 123.697 22.228 124.969 21.592C126.276 20.9207 127.672 20.585 129.156 20.585C130.216 20.585 131.187 20.7087 132.071 20.956C132.989 21.168 133.784 21.5743 134.456 22.175C135.127 22.7757 135.657 23.5707 136.046 24.56C136.434 25.5493 136.629 26.8213 136.629 28.376V50H127.089V31.079C127.089 29.8777 126.912 29.012 126.559 28.482C126.205 27.952 125.605 27.687 124.757 27.687C123.909 27.687 123.308 27.952 122.955 28.482C122.601 29.012 122.425 29.8777 122.425 31.079V50H112.885V31.079ZM148.995 44.329C150.055 44.329 150.814 43.9403 151.274 43.163C151.733 42.3857 151.963 41.202 151.963 39.612V36.167H151.857C151.574 36.5557 151.132 36.803 150.532 36.909C149.966 36.9797 149.33 37.174 148.624 37.492C147.882 37.8453 147.369 38.3223 147.087 38.923C146.804 39.4883 146.663 40.248 146.663 41.202C146.663 42.156 146.875 42.9157 147.299 43.481C147.723 44.0463 148.288 44.329 148.995 44.329ZM152.546 50C152.369 49.5053 152.245 48.993 152.175 48.463C152.104 47.933 152.033 47.3677 151.963 46.767H151.857C151.327 48.039 150.479 48.993 149.313 49.629C148.182 50.265 146.875 50.583 145.391 50.583C143.942 50.583 142.705 50.3887 141.681 50C140.691 49.6467 139.879 49.099 139.243 48.357C138.607 47.615 138.147 46.7317 137.865 45.707C137.582 44.6823 137.441 43.5517 137.441 42.315C137.441 40.9723 137.564 39.8063 137.812 38.817C138.094 37.8277 138.536 36.9797 139.137 36.273C139.737 35.531 140.55 34.9127 141.575 34.418C142.599 33.888 143.871 33.4463 145.391 33.093L149.154 32.192C150.178 31.9447 150.903 31.5913 151.327 31.132C151.751 30.6373 151.963 29.9483 151.963 29.065C151.963 27.2983 151.15 26.415 149.525 26.415C148.606 26.415 147.935 26.68 147.511 27.21C147.087 27.7047 146.857 28.7117 146.822 30.231H138.554C138.554 28.1463 138.925 26.4857 139.667 25.249C140.409 23.977 141.327 23.0053 142.423 22.334C143.518 21.6273 144.702 21.168 145.974 20.956C147.246 20.7087 148.429 20.585 149.525 20.585C151.185 20.585 152.705 20.7263 154.083 21.009C155.496 21.2563 156.697 21.7333 157.687 22.44C158.711 23.1113 159.489 24.0477 160.019 25.249C160.584 26.415 160.867 27.9343 160.867 29.807V43.799C160.867 45.1417 160.92 46.3253 161.026 47.35C161.132 48.3747 161.379 49.258 161.768 50H152.546ZM162.987 21.327H172.209V24.825H172.315C173.551 21.9983 175.866 20.585 179.258 20.585C180.318 20.585 181.289 20.7087 182.173 20.956C183.091 21.168 183.886 21.5743 184.558 22.175C185.229 22.7757 185.759 23.5707 186.148 24.56C186.536 25.5493 186.731 26.8213 186.731 28.376V50H177.191V31.079C177.191 29.8777 177.014 29.012 176.661 28.482C176.307 27.952 175.707 27.687 174.859 27.687C174.011 27.687 173.41 27.952 173.057 28.482C172.703 29.012 172.527 29.8777 172.527 31.079V50H162.987V21.327ZM197.624 35.69C197.624 37.2093 197.659 38.4813 197.73 39.506C197.801 40.5307 197.924 41.361 198.101 41.997C198.313 42.5977 198.596 43.0217 198.949 43.269C199.302 43.5163 199.762 43.64 200.327 43.64C200.857 43.64 201.299 43.5163 201.652 43.269C202.005 43.0217 202.27 42.5977 202.447 41.997C202.659 41.361 202.8 40.5307 202.871 39.506C202.942 38.4813 202.977 37.2093 202.977 35.69C202.977 34.1353 202.942 32.8457 202.871 31.821C202.8 30.7963 202.659 29.9837 202.447 29.383C202.27 28.747 202.005 28.3053 201.652 28.058C201.299 27.8107 200.857 27.687 200.327 27.687C199.762 27.687 199.302 27.8107 198.949 28.058C198.596 28.3053 198.313 28.747 198.101 29.383C197.924 29.9837 197.801 30.7963 197.73 31.821C197.659 32.8457 197.624 34.1353 197.624 35.69ZM202.977 12.158H212.517V50H203.295V46.078H203.189C202.588 47.668 201.776 48.8163 200.751 49.523C199.726 50.2297 198.366 50.583 196.67 50.583C193.49 50.583 191.264 49.3287 189.992 46.82C188.72 44.3113 188.084 40.3893 188.084 35.054C188.084 32.3333 188.296 30.0543 188.72 28.217C189.144 26.3797 189.727 24.8957 190.469 23.765C191.246 22.6343 192.183 21.8217 193.278 21.327C194.373 20.8323 195.575 20.585 196.882 20.585C198.225 20.585 199.426 20.8853 200.486 21.486C201.581 22.0513 202.376 23.076 202.871 24.56H202.977V12.158Z" fill="black"/>
<path d="M231.996 23.659C231.996 21.5037 231.784 20.0373 231.36 19.26C230.936 18.4827 230.247 18.094 229.293 18.094C228.551 18.094 227.95 18.2883 227.491 18.677C227.067 19.0657 226.731 19.7547 226.484 20.744C226.272 21.7333 226.131 23.076 226.06 24.772C225.989 26.4327 225.954 28.535 225.954 31.079C225.954 33.623 225.989 35.743 226.06 37.439C226.131 39.0997 226.272 40.4247 226.484 41.414C226.731 42.4033 227.067 43.0923 227.491 43.481C227.95 43.8697 228.551 44.064 229.293 44.064C229.894 44.064 230.388 43.9227 230.777 43.64C231.166 43.322 231.466 42.8097 231.678 42.103C231.89 41.3963 232.031 40.46 232.102 39.294C232.208 38.0927 232.261 36.591 232.261 34.789H241.801V37.598C241.801 40.248 241.448 42.421 240.741 44.117C240.034 45.813 239.098 47.1557 237.932 48.145C236.766 49.099 235.423 49.735 233.904 50.053C232.42 50.4063 230.883 50.583 229.293 50.583C226.537 50.583 224.276 50.2473 222.509 49.576C220.742 48.9047 219.364 47.7917 218.375 46.237C217.386 44.647 216.697 42.6153 216.308 40.142C215.955 37.6333 215.778 34.6123 215.778 31.079C215.778 27.475 215.99 24.4187 216.414 21.91C216.873 19.4013 217.633 17.3697 218.693 15.815C219.753 14.2603 221.149 13.1473 222.88 12.476C224.611 11.7693 226.749 11.416 229.293 11.416C231.519 11.416 233.409 11.6987 234.964 12.264C236.519 12.8293 237.773 13.642 238.727 14.702C239.716 15.7267 240.423 16.981 240.847 18.465C241.306 19.9137 241.536 21.5567 241.536 23.394V25.779H231.996V23.659ZM243.609 21.327H252.831V25.885H252.937C253.467 24.1537 254.315 22.8463 255.481 21.963C256.647 21.0443 257.937 20.585 259.35 20.585H260.887V29.489C260.463 29.4183 260.057 29.3653 259.668 29.33C259.279 29.2947 258.891 29.277 258.502 29.277C256.806 29.277 255.481 29.648 254.527 30.39C253.608 31.132 253.149 32.457 253.149 34.365V50H243.609V21.327ZM275.916 30.814C275.916 29.2947 275.721 28.1817 275.333 27.475C274.979 26.7683 274.29 26.415 273.266 26.415C272.276 26.415 271.587 26.7683 271.199 27.475C270.845 28.1817 270.669 29.2947 270.669 30.814V32.086H275.916V30.814ZM270.669 37.28V41.043C270.669 42.5977 270.934 43.64 271.464 44.17C271.994 44.6647 272.594 44.912 273.266 44.912C274.114 44.912 274.767 44.5763 275.227 43.905C275.721 43.1983 275.969 41.8733 275.969 39.93H284.555C284.484 43.4633 283.583 46.131 281.852 47.933C280.12 49.6997 277.276 50.583 273.319 50.583C271.022 50.583 269.096 50.3357 267.542 49.841C265.987 49.311 264.733 48.463 263.779 47.297C262.825 46.0957 262.136 44.541 261.712 42.633C261.323 40.725 261.129 38.4107 261.129 35.69C261.129 32.934 261.358 30.602 261.818 28.694C262.277 26.786 263.001 25.2313 263.991 24.03C264.98 22.8287 266.234 21.963 267.754 21.433C269.308 20.8677 271.163 20.585 273.319 20.585C275.227 20.585 276.887 20.8147 278.301 21.274C279.749 21.7333 280.951 22.5107 281.905 23.606C282.894 24.666 283.618 26.0793 284.078 27.846C284.572 29.5773 284.82 31.7503 284.82 34.365V37.28H270.669ZM295.125 35.69C295.125 37.2093 295.161 38.4813 295.231 39.506C295.302 40.5307 295.426 41.361 295.602 41.997C295.814 42.5977 296.097 43.0217 296.45 43.269C296.804 43.5163 297.263 43.64 297.828 43.64C298.358 43.64 298.8 43.5163 299.153 43.269C299.507 43.0217 299.772 42.5977 299.948 41.997C300.16 41.361 300.302 40.5307 300.372 39.506C300.443 38.4813 300.478 37.2093 300.478 35.69C300.478 34.1353 300.443 32.8457 300.372 31.821C300.302 30.7963 300.16 29.9837 299.948 29.383C299.772 28.747 299.507 28.3053 299.153 28.058C298.8 27.8107 298.358 27.687 297.828 27.687C297.263 27.687 296.804 27.8107 296.45 28.058C296.097 28.3053 295.814 28.747 295.602 29.383C295.426 29.9837 295.302 30.7963 295.231 31.821C295.161 32.8457 295.125 34.1353 295.125 35.69ZM300.478 12.158H310.018V50H300.796V46.078H300.69C300.09 47.668 299.277 48.8163 298.252 49.523C297.228 50.2297 295.867 50.583 294.171 50.583C290.991 50.583 288.765 49.3287 287.493 46.82C286.221 44.3113 285.585 40.3893 285.585 35.054C285.585 32.3333 285.797 30.0543 286.221 28.217C286.645 26.3797 287.228 24.8957 287.97 23.765C288.748 22.6343 289.684 21.8217 290.779 21.327C291.875 20.8323 293.076 20.585 294.383 20.585C295.726 20.585 296.927 20.8853 297.987 21.486C299.083 22.0513 299.878 23.076 300.372 24.56H300.478V12.158ZM312.537 12.158H322.077V19.26H312.537V12.158ZM312.537 21.327H322.077V50H312.537V21.327ZM323.18 21.327H326.36V12.9H335.9V21.327H339.663V27.74H335.9V41.414C335.9 42.2267 336.077 42.8097 336.43 43.163C336.819 43.481 337.402 43.64 338.179 43.64H339.663V50C338.78 50 337.897 50.0177 337.013 50.053C336.13 50.1237 335.282 50.159 334.469 50.159C333.021 50.159 331.784 50.106 330.759 50C329.735 49.8587 328.887 49.5407 328.215 49.046C327.579 48.5513 327.102 47.827 326.784 46.873C326.502 45.8837 326.36 44.594 326.36 43.004V27.74H323.18V21.327Z" fill="#007A55"/>
<path d="M225.52 58.418H220.046V56.578H233.179V58.418H227.705V73H225.52V58.418ZM241.502 72.954C241.165 73.1533 240.697 73.253 240.099 73.253C239.593 73.253 239.187 73.115 238.88 72.839C238.589 72.5477 238.443 72.08 238.443 71.436C237.907 72.08 237.278 72.5477 236.557 72.839C235.852 73.115 235.085 73.253 234.257 73.253C233.721 73.253 233.207 73.1917 232.716 73.069C232.241 72.9463 231.827 72.7547 231.474 72.494C231.122 72.2333 230.838 71.896 230.623 71.482C230.424 71.0527 230.324 70.539 230.324 69.941C230.324 69.2663 230.439 68.7143 230.669 68.285C230.899 67.8557 231.198 67.5107 231.566 67.25C231.95 66.974 232.379 66.767 232.854 66.629C233.345 66.491 233.843 66.376 234.349 66.284C234.886 66.1767 235.392 66.1 235.867 66.054C236.358 65.9927 236.787 65.916 237.155 65.824C237.523 65.7167 237.815 65.571 238.029 65.387C238.244 65.1877 238.351 64.904 238.351 64.536C238.351 64.1067 238.267 63.7617 238.098 63.501C237.945 63.2403 237.738 63.041 237.477 62.903C237.232 62.765 236.948 62.673 236.626 62.627C236.32 62.581 236.013 62.558 235.706 62.558C234.878 62.558 234.188 62.719 233.636 63.041C233.084 63.3477 232.785 63.938 232.739 64.812H230.784C230.815 64.076 230.968 63.455 231.244 62.949C231.52 62.443 231.888 62.0367 232.348 61.73C232.808 61.408 233.33 61.178 233.912 61.04C234.51 60.902 235.147 60.833 235.821 60.833C236.358 60.833 236.887 60.8713 237.408 60.948C237.945 61.0247 238.428 61.1857 238.857 61.431C239.287 61.661 239.632 61.9907 239.892 62.42C240.153 62.8493 240.283 63.409 240.283 64.099V70.217C240.283 70.677 240.306 71.0143 240.352 71.229C240.414 71.4437 240.598 71.551 240.904 71.551C241.073 71.551 241.272 71.5127 241.502 71.436V72.954ZM238.328 66.859C238.083 67.043 237.761 67.181 237.362 67.273C236.964 67.3497 236.542 67.4187 236.097 67.48C235.668 67.526 235.231 67.5873 234.786 67.664C234.342 67.7253 233.943 67.8327 233.59 67.986C233.238 68.1393 232.946 68.3617 232.716 68.653C232.502 68.929 232.394 69.3123 232.394 69.803C232.394 70.125 232.456 70.401 232.578 70.631C232.716 70.8457 232.885 71.022 233.084 71.16C233.299 71.298 233.544 71.3977 233.82 71.459C234.096 71.5203 234.388 71.551 234.694 71.551C235.338 71.551 235.89 71.4667 236.35 71.298C236.81 71.114 237.186 70.8917 237.477 70.631C237.769 70.355 237.983 70.0637 238.121 69.757C238.259 69.435 238.328 69.136 238.328 68.86V66.859ZM242.287 56.578H244.242V66.307L249.67 61.109H252.292L247.577 65.433L252.637 73H250.153L246.082 66.79L244.242 68.492V73H242.287V56.578ZM261.206 65.916C261.175 65.456 261.068 65.019 260.884 64.605C260.715 64.191 260.477 63.8383 260.171 63.547C259.879 63.2403 259.527 63.0027 259.113 62.834C258.714 62.65 258.269 62.558 257.779 62.558C257.273 62.558 256.813 62.65 256.399 62.834C256 63.0027 255.655 63.2403 255.364 63.547C255.072 63.8537 254.842 64.214 254.674 64.628C254.505 65.0267 254.405 65.456 254.375 65.916H261.206ZM263.092 69.228C262.831 70.562 262.256 71.5663 261.367 72.241C260.477 72.9157 259.358 73.253 258.009 73.253C257.058 73.253 256.23 73.0997 255.525 72.793C254.835 72.4863 254.252 72.057 253.777 71.505C253.301 70.953 252.941 70.2937 252.696 69.527C252.466 68.7603 252.335 67.9247 252.305 67.02C252.305 66.1153 252.443 65.2873 252.719 64.536C252.995 63.7847 253.378 63.133 253.869 62.581C254.375 62.029 254.965 61.5997 255.64 61.293C256.33 60.9863 257.081 60.833 257.894 60.833C258.952 60.833 259.826 61.0553 260.516 61.5C261.221 61.9293 261.781 62.4813 262.195 63.156C262.624 63.8307 262.915 64.5667 263.069 65.364C263.237 66.1613 263.306 66.9203 263.276 67.641H254.375C254.359 68.1623 254.421 68.6607 254.559 69.136C254.697 69.596 254.919 70.01 255.226 70.378C255.532 70.7307 255.923 71.0143 256.399 71.229C256.874 71.4437 257.434 71.551 258.078 71.551C258.906 71.551 259.58 71.3593 260.102 70.976C260.638 70.5927 260.991 70.01 261.16 69.228H263.092ZM281.272 61.523C281.026 60.3577 280.482 59.4837 279.639 58.901C278.811 58.3183 277.822 58.027 276.672 58.027C275.69 58.027 274.847 58.211 274.142 58.579C273.452 58.947 272.877 59.4453 272.417 60.074C271.972 60.6873 271.642 61.3927 271.428 62.19C271.213 62.9873 271.106 63.8153 271.106 64.674C271.106 65.6093 271.213 66.4987 271.428 67.342C271.642 68.17 271.972 68.8983 272.417 69.527C272.877 70.1403 273.459 70.631 274.165 70.999C274.87 71.367 275.713 71.551 276.695 71.551C277.415 71.551 278.052 71.436 278.604 71.206C279.171 70.9607 279.654 70.631 280.053 70.217C280.467 69.7877 280.789 69.2817 281.019 68.699C281.249 68.1163 281.387 67.4877 281.433 66.813H283.618C283.403 68.883 282.69 70.493 281.479 71.643C280.267 72.793 278.611 73.368 276.511 73.368C275.238 73.368 274.126 73.1533 273.176 72.724C272.225 72.2793 271.435 71.6737 270.807 70.907C270.178 70.1403 269.703 69.2357 269.381 68.193C269.074 67.1503 268.921 66.031 268.921 64.835C268.921 63.639 269.089 62.5197 269.427 61.477C269.764 60.419 270.255 59.499 270.899 58.717C271.558 57.935 272.371 57.3217 273.337 56.877C274.318 56.417 275.437 56.187 276.695 56.187C277.553 56.187 278.366 56.302 279.133 56.532C279.899 56.762 280.582 57.0993 281.18 57.544C281.778 57.9887 282.276 58.5483 282.675 59.223C283.073 59.8823 283.334 60.649 283.457 61.523H281.272ZM284.852 56.578H286.807V62.857H286.853C287.007 62.489 287.221 62.1823 287.497 61.937C287.773 61.6763 288.08 61.4693 288.417 61.316C288.77 61.1473 289.13 61.0247 289.498 60.948C289.882 60.8713 290.25 60.833 290.602 60.833C291.384 60.833 292.036 60.9403 292.557 61.155C293.079 61.3697 293.5 61.6687 293.822 62.052C294.144 62.4353 294.367 62.8953 294.489 63.432C294.627 63.9533 294.696 64.536 294.696 65.18V73H292.741V64.95C292.741 64.214 292.527 63.6313 292.097 63.202C291.668 62.7727 291.078 62.558 290.326 62.558C289.728 62.558 289.207 62.65 288.762 62.834C288.333 63.018 287.973 63.2787 287.681 63.616C287.39 63.9533 287.168 64.352 287.014 64.812C286.876 65.2567 286.807 65.7473 286.807 66.284V73H284.852V56.578ZM307.017 72.954C306.679 73.1533 306.212 73.253 305.614 73.253C305.108 73.253 304.701 73.115 304.395 72.839C304.103 72.5477 303.958 72.08 303.958 71.436C303.421 72.08 302.792 72.5477 302.072 72.839C301.366 73.115 300.6 73.253 299.772 73.253C299.235 73.253 298.721 73.1917 298.231 73.069C297.755 72.9463 297.341 72.7547 296.989 72.494C296.636 72.2333 296.352 71.896 296.138 71.482C295.938 71.0527 295.839 70.539 295.839 69.941C295.839 69.2663 295.954 68.7143 296.184 68.285C296.414 67.8557 296.713 67.5107 297.081 67.25C297.464 66.974 297.893 66.767 298.369 66.629C298.859 66.491 299.358 66.376 299.864 66.284C300.4 66.1767 300.906 66.1 301.382 66.054C301.872 65.9927 302.302 65.916 302.67 65.824C303.038 65.7167 303.329 65.571 303.544 65.387C303.758 65.1877 303.866 64.904 303.866 64.536C303.866 64.1067 303.781 63.7617 303.613 63.501C303.459 63.2403 303.252 63.041 302.992 62.903C302.746 62.765 302.463 62.673 302.141 62.627C301.834 62.581 301.527 62.558 301.221 62.558C300.393 62.558 299.703 62.719 299.151 63.041C298.599 63.3477 298.3 63.938 298.254 64.812H296.299C296.329 64.076 296.483 63.455 296.759 62.949C297.035 62.443 297.403 62.0367 297.863 61.73C298.323 61.408 298.844 61.178 299.427 61.04C300.025 60.902 300.661 60.833 301.336 60.833C301.872 60.833 302.401 60.8713 302.923 60.948C303.459 61.0247 303.942 61.1857 304.372 61.431C304.801 61.661 305.146 61.9907 305.407 62.42C305.667 62.8493 305.798 63.409 305.798 64.099V70.217C305.798 70.677 305.821 71.0143 305.867 71.229C305.928 71.4437 306.112 71.551 306.419 71.551C306.587 71.551 306.787 71.5127 307.017 71.436V72.954ZM303.843 66.859C303.597 67.043 303.275 67.181 302.877 67.273C302.478 67.3497 302.056 67.4187 301.612 67.48C301.182 67.526 300.745 67.5873 300.301 67.664C299.856 67.7253 299.457 67.8327 299.105 67.986C298.752 68.1393 298.461 68.3617 298.231 68.653C298.016 68.929 297.909 69.3123 297.909 69.803C297.909 70.125 297.97 70.401 298.093 70.631C298.231 70.8457 298.399 71.022 298.599 71.16C298.813 71.298 299.059 71.3977 299.335 71.459C299.611 71.5203 299.902 71.551 300.209 71.551C300.853 71.551 301.405 71.4667 301.865 71.298C302.325 71.114 302.7 70.8917 302.992 70.631C303.283 70.355 303.498 70.0637 303.636 69.757C303.774 69.435 303.843 69.136 303.843 68.86V66.859ZM307.617 61.109H309.457V63.616H309.503C309.978 62.65 310.561 61.937 311.251 61.477C311.941 61.017 312.815 60.8023 313.873 60.833V62.903C313.091 62.903 312.424 63.0103 311.872 63.225C311.32 63.4397 310.875 63.754 310.538 64.168C310.201 64.582 309.955 65.088 309.802 65.686C309.649 66.2687 309.572 66.9433 309.572 67.71V73H307.617V61.109ZM323.802 71.988C323.802 73.9353 323.357 75.392 322.468 76.358C321.579 77.324 320.183 77.807 318.282 77.807C317.73 77.807 317.163 77.7457 316.58 77.623C316.013 77.5003 315.491 77.301 315.016 77.025C314.556 76.749 314.173 76.3887 313.866 75.944C313.559 75.4993 313.391 74.955 313.36 74.311H315.315C315.33 74.6637 315.438 74.9627 315.637 75.208C315.852 75.4533 316.105 75.6527 316.396 75.806C316.703 75.9593 317.032 76.0667 317.385 76.128C317.738 76.2047 318.075 76.243 318.397 76.243C319.041 76.243 319.585 76.128 320.03 75.898C320.475 75.6833 320.843 75.3767 321.134 74.978C321.425 74.5947 321.632 74.127 321.755 73.575C321.893 73.023 321.962 72.4173 321.962 71.758V70.976H321.916C321.579 71.712 321.065 72.2563 320.375 72.609C319.7 72.9463 318.98 73.115 318.213 73.115C317.324 73.115 316.549 72.954 315.89 72.632C315.231 72.31 314.679 71.8807 314.234 71.344C313.789 70.792 313.452 70.1557 313.222 69.435C313.007 68.699 312.9 67.9247 312.9 67.112C312.9 66.4067 312.992 65.686 313.176 64.95C313.36 64.1987 313.667 63.524 314.096 62.926C314.525 62.3127 315.093 61.8143 315.798 61.431C316.503 61.0323 317.37 60.833 318.397 60.833C319.148 60.833 319.838 61.0017 320.467 61.339C321.096 61.661 321.586 62.1517 321.939 62.811H321.962V61.109H323.802V71.988ZM318.328 71.413C318.972 71.413 319.516 71.2827 319.961 71.022C320.421 70.746 320.789 70.3933 321.065 69.964C321.341 69.5193 321.54 69.021 321.663 68.469C321.801 67.917 321.87 67.365 321.87 66.813C321.87 66.2917 321.809 65.778 321.686 65.272C321.563 64.766 321.364 64.3137 321.088 63.915C320.827 63.501 320.482 63.1713 320.053 62.926C319.624 62.6807 319.102 62.558 318.489 62.558C317.86 62.558 317.324 62.6807 316.879 62.926C316.434 63.156 316.066 63.4703 315.775 63.869C315.499 64.2677 315.292 64.7277 315.154 65.249C315.031 65.7703 314.97 66.3147 314.97 66.882C314.97 67.4187 315.024 67.9553 315.131 68.492C315.238 69.0287 315.422 69.5193 315.683 69.964C315.944 70.3933 316.289 70.746 316.718 71.022C317.147 71.2827 317.684 71.413 318.328 71.413ZM333.858 65.916C333.827 65.456 333.72 65.019 333.536 64.605C333.367 64.191 333.13 63.8383 332.823 63.547C332.532 63.2403 332.179 63.0027 331.765 62.834C331.366 62.65 330.922 62.558 330.431 62.558C329.925 62.558 329.465 62.65 329.051 62.834C328.652 63.0027 328.307 63.2403 328.016 63.547C327.725 63.8537 327.495 64.214 327.326 64.628C327.157 65.0267 327.058 65.456 327.027 65.916H333.858ZM335.744 69.228C335.483 70.562 334.908 71.5663 334.019 72.241C333.13 72.9157 332.01 73.253 330.661 73.253C329.71 73.253 328.882 73.0997 328.177 72.793C327.487 72.4863 326.904 72.057 326.429 71.505C325.954 70.953 325.593 70.2937 325.348 69.527C325.118 68.7603 324.988 67.9247 324.957 67.02C324.957 66.1153 325.095 65.2873 325.371 64.536C325.647 63.7847 326.03 63.133 326.521 62.581C327.027 62.029 327.617 61.5997 328.292 61.293C328.982 60.9863 329.733 60.833 330.546 60.833C331.604 60.833 332.478 61.0553 333.168 61.5C333.873 61.9293 334.433 62.4813 334.847 63.156C335.276 63.8307 335.568 64.5667 335.721 65.364C335.89 66.1613 335.959 66.9203 335.928 67.641H327.027C327.012 68.1623 327.073 68.6607 327.211 69.136C327.349 69.596 327.571 70.01 327.878 70.378C328.185 70.7307 328.576 71.0143 329.051 71.229C329.526 71.4437 330.086 71.551 330.73 71.551C331.558 71.551 332.233 71.3593 332.754 70.976C333.291 70.5927 333.643 70.01 333.812 69.228H335.744ZM337.241 70.447H339.794V73H337.241V70.447Z" fill="black"/>
</g>
</g>
<defs>
<clipPath id="clip0_1_2">
<rect width="350" height="84" fill="white"/>
</clipPath>
</defs>
</svg>
